<svg width="1900" height="1024" viewBox="0 0 1900 1024" fill="none" xmlns="http://www.w3.org/2000/svg">
<g clip-path="url(#clip0_859_32740)">
<rect width="1900" height="1024" fill="white"/>
<rect x="-40" y="53.3884" width="125" height="28" transform="rotate(-45 -40 53.3884)" fill="#2291E1"/>
<rect x="-30" y="107.794" width="187.8" height="28" transform="rotate(-45 -30 107.794)" fill="#940F15"/>
<rect x="-51.1562" y="196.544" width="322.279" height="28" transform="rotate(-45 -51.1562 196.544)" fill="#2291E1"/>
<rect x="-55.8789" y="265.673" width="423.737" height="28" transform="rotate(-45 -55.8789 265.673)" fill="#940F15"/>
<rect x="-81.1191" y="355.385" width="580.4" height="28" transform="rotate(-45 -81.1191 355.385)" fill="#2291E1"/>
<rect x="-116.438" y="455.11" width="710.207" height="28" transform="rotate(-45 -116.438 455.11)" fill="#940F15"/>
<rect x="-62.5938" y="468.861" width="731.096" height="28" transform="rotate(-45 -62.5938 468.861)" fill="#2291E1"/>
<rect x="-95.8027" y="566.476" width="875.823" height="28" transform="rotate(-45 -95.8027 566.476)" fill="#940F15"/>
<rect x="-76.4277" y="612.273" width="938.488" height="28" transform="rotate(-45 -76.4277 612.273)" fill="#2291E1"/>
<rect x="-51.6094" y="651.861" width="1104.1" height="28" transform="rotate(-45 -51.6094 651.861)" fill="#940F15"/>
<rect x="-76.8945" y="744.739" width="1135.44" height="28" transform="rotate(-45 -76.8945 744.739)" fill="#2291E1"/>
<rect x="-125.928" y="858.179" width="1366.7" height="28" transform="rotate(-45 -125.928 858.179)" fill="#940F15"/>
<rect x="-267.771" y="1064.49" width="1621.84" height="28" transform="rotate(-45 -267.771 1064.49)" fill="#2291E1"/>
<rect x="-106.855" y="967.985" width="1471.14" height="28" transform="rotate(-45 -106.855 967.985)" fill="#940F15"/>
<rect x="-75.168" y="1003.89" width="1459.21" height="28" transform="rotate(-45 -75.168 1003.89)" fill="#2291E1"/>
<rect x="-85.166" y="1078.3" width="1614.54" height="28" transform="rotate(-45 -85.166 1078.3)" fill="#940F15"/>
<rect x="-196.314" y="1254.33" width="1878.12" height="28" transform="rotate(-45 -196.314 1254.33)" fill="#2291E1"/>
<rect x="50.5352" y="1071.89" width="1578.93" height="28" transform="rotate(-45 50.5352 1071.89)" fill="#940F15"/>
<rect x="139.906" y="1046.99" width="1530.88" height="28" transform="rotate(-45 139.906 1046.99)" fill="#2291E1"/>
<rect x="189.098" y="1062.21" width="1546.17" height="28" transform="rotate(-45 189.098 1062.21)" fill="#940F15"/>
<rect x="212.084" y="1106.81" width="1605.13" height="28" transform="rotate(-45 212.084 1106.81)" fill="#2291E1"/>
<rect x="272.084" y="1111.22" width="1616.05" height="28" transform="rotate(-45 272.084 1111.22)" fill="#940F15"/>
<rect x="371.07" y="1077.4" width="1618.24" height="28" transform="rotate(-45 371.07 1077.4)" fill="#2291E1"/>
<rect x="400.186" y="1112.7" width="1622.6" height="28" transform="rotate(-45 400.186 1112.7)" fill="#940F15"/>
<rect x="467.955" y="1112.52" width="1664.1" height="28" transform="rotate(-45 467.955 1112.52)" fill="#2291E1"/>
<rect x="532.844" y="1112.04" width="1687.76" height="28" transform="rotate(-45 532.844 1112.04)" fill="#940F15"/>
<rect x="391" y="1318.35" width="1984.17" height="28" transform="rotate(-45 391 1318.35)" fill="#2291E1"/>
<rect x="551.916" y="1221.84" width="1784.67" height="28" transform="rotate(-45 551.916 1221.84)" fill="#940F15"/>
<rect x="583.604" y="1257.75" width="1807.31" height="28" transform="rotate(-45 583.604 1257.75)" fill="#2291E1"/>
<rect x="573.605" y="1332.15" width="1960.9" height="28" transform="rotate(-45 573.605 1332.15)" fill="#940F15"/>
<rect x="860" y="1111.87" width="1546.17" height="28" transform="rotate(-45 860 1111.87)" fill="#2291E1"/>
<rect x="882.986" y="1156.48" width="1605.13" height="28" transform="rotate(-45 882.986 1156.48)" fill="#940F15"/>
<rect x="942.986" y="1160.89" width="1616.05" height="28" transform="rotate(-45 942.986 1160.89)" fill="#2291E1"/>
<rect x="1041.97" y="1127.07" width="1618.24" height="28" transform="rotate(-45 1041.97 1127.07)" fill="#940F15"/>
<rect x="1071.09" y="1162.36" width="1622.6" height="28" transform="rotate(-45 1071.09 1162.36)" fill="#2291E1"/>
<rect x="1138.86" y="1162.19" width="1664.1" height="28" transform="rotate(-45 1138.86 1162.19)" fill="#940F15"/>
<rect x="1203.75" y="1161.71" width="1687.76" height="28" transform="rotate(-45 1203.75 1161.71)" fill="#2291E1"/>
<rect x="1061.9" y="1368.02" width="1984.17" height="28" transform="rotate(-45 1061.9 1368.02)" fill="#940F15"/>
<rect x="1222.82" y="1271.51" width="1784.67" height="28" transform="rotate(-45 1222.82 1271.51)" fill="#2291E1"/>
<rect x="1254.51" y="1307.42" width="1807.31" height="28" transform="rotate(-45 1254.51 1307.42)" fill="#940F15"/>
<rect x="1244.51" y="1381.82" width="1960.9" height="28" transform="rotate(-45 1244.51 1381.82)" fill="#2291E1"/>
<rect x="1324" y="1369.25" width="1784.67" height="28" transform="rotate(-45 1324 1369.25)" fill="#940F15"/>
<rect x="1355.69" y="1405.16" width="1807.31" height="28" transform="rotate(-45 1355.69 1405.16)" fill="#2291E1"/>
<rect x="1345.69" y="1479.56" width="1960.9" height="28" transform="rotate(-45 1345.69 1479.56)" fill="#940F15"/>
</g>
<defs>
<clipPath id="clip0_859_32740">
<rect width="1900" height="1024" fill="white"/>
</clipPath>
</defs>
</svg>
